<?xml version="1.0" encoding="UTF-8"?>
<svg version="1.1" xmlns="http://www.w3.org/2000/svg" width="169" height="214">
<path d="M0 0 C17.12585292 5.86527564 29.16753137 15.37903539 37.49609375 31.515625 C41.51472286 40.0847606 42.6078765 47.96077731 42.55859375 57.34375 C42.55730469 58.35703369 42.55601562 59.37031738 42.5546875 60.41430664 C42.46117419 67.69840906 41.73745124 74.19802838 39.24609375 81.09375 C39.82875 81.36058594 40.41140625 81.62742187 41.01171875 81.90234375 C44.94834901 84.00142107 48.02027691 87.04452897 51.24609375 90.09375 C51.91125 90.72023438 52.57640625 91.34671875 53.26171875 91.9921875 C68.65988234 107.81470993 71.77386311 128.46862665 71.515625 149.578125 C71.00301657 167.24417708 63.45602867 183.0723538 51.03515625 195.50390625 C38.15702232 207.46217347 22.8175652 213.21164958 5.37109375 213.59375 C4.15776367 213.6397937 4.15776367 213.6397937 2.91992188 213.68676758 C-1.60683869 213.68817632 -5.22316971 213.27021535 -8.62017822 209.90472412 C-14.03627323 201.25325952 -12.00923731 186.85098435 -11.94921875 176.984375 C-11.94548073 175.16306719 -11.94263749 173.34175734 -11.94064331 171.52044678 C-11.93306894 166.76613649 -11.91347493 162.01195171 -11.89123535 157.25769043 C-11.87064216 152.39056088 -11.861613 147.52341072 -11.8515625 142.65625 C-11.83022217 133.13536204 -11.79616265 123.61456653 -11.75390625 114.09375 C-12.68589844 114.14015625 -13.61789063 114.1865625 -14.578125 114.234375 C-17.75390625 114.09375 -17.75390625 114.09375 -20.56640625 111.84375 C-23.46307497 108.20222361 -23.87546598 105.45598974 -23.89434814 100.89468384 C-23.90005829 100.06485489 -23.90576843 99.23502594 -23.91165161 98.38005066 C-23.91276947 97.47813492 -23.91388733 96.57621918 -23.91503906 95.64697266 C-23.92000397 94.69042282 -23.92496887 93.73387299 -23.93008423 92.74833679 C-23.94468607 89.58482137 -23.95150413 86.42135608 -23.95703125 83.2578125 C-23.96278377 81.05829873 -23.96854149 78.85878498 -23.9743042 76.65927124 C-23.98480817 72.0475847 -23.99065498 67.43591557 -23.99414062 62.82421875 C-23.99962793 56.9171387 -24.0236637 51.01028884 -24.05211258 45.10328102 C-24.07074117 40.55993986 -24.07594466 36.01665417 -24.0774765 31.47327805 C-24.0805024 29.29559443 -24.0885288 27.11791177 -24.10166168 24.94026566 C-24.11872855 21.89310446 -24.11684035 18.84650609 -24.11035156 15.79931641 C-24.11956635 14.90144913 -24.12878113 14.00358185 -24.13827515 13.07850647 C-24.10450917 8.01302999 -23.60824499 4.46754394 -20.75390625 0.09375 C-15.00013775 -2.78313425 -6.10247449 -1.47323005 0 0 Z " fill="#69B848" transform="translate(97.75390625,0.90625)"/>
<path d="M0 0 C16.57998043 9.73860818 26.04374861 23.75198352 31 42 C34.68531941 59.39376867 31.90177248 77.71336059 22.97265625 93.03125 C14.42043497 105.90191965 1.5288186 115.23369466 -13.69921875 118.62109375 C-29.21442028 121.17622881 -29.21442028 121.17622881 -36 118 C-39.84584292 114.25536348 -40.82862583 111.00280181 -41.12863445 105.74607944 C-41.1303103 104.97680087 -41.13198614 104.2075223 -41.13371277 103.41493225 C-41.13797775 102.52482956 -41.14224274 101.63472687 -41.14663696 100.71765137 C-41.14618378 99.75387573 -41.14573059 98.7901001 -41.14526367 97.79711914 C-41.14862228 96.77214828 -41.1519809 95.74717743 -41.15544128 94.69114685 C-41.1649337 91.3058043 -41.16689344 87.92051128 -41.16796875 84.53515625 C-41.17118216 82.1801298 -41.17454629 79.82510355 -41.17805481 77.47007751 C-41.18404154 72.53481585 -41.18589514 67.59957168 -41.18530273 62.66430664 C-41.18520106 56.34141779 -41.1988613 50.0186411 -41.21607494 43.69577885 C-41.22719384 38.83246851 -41.22922199 33.96918532 -41.22869301 29.10586357 C-41.22987298 26.77467906 -41.23429571 24.44349385 -41.24202538 22.11232185 C-41.25182428 18.85222638 -41.24894764 15.5923748 -41.24291992 12.33227539 C-41.24853943 11.37052399 -41.25415894 10.40877258 -41.25994873 9.4178772 C-41.23393449 3.8799665 -41.1583094 -1.27865336 -37.5625 -5.8125 C-27.84568343 -13.19728059 -9.28869525 -4.63804593 0 0 Z " fill="#E25A26" transform="translate(41,76)"/>
<path d="M0 0 C17.12585292 5.86527564 29.16753137 15.37903539 37.49609375 31.515625 C41.52913249 40.11548702 42.58953621 47.99355235 42.55859375 57.40625 C42.57470703 58.37498047 42.59082031 59.34371094 42.60742188 60.34179688 C42.61209185 67.34208464 41.39714752 73.44200484 39.24609375 80.09375 C36.04548382 79.49236569 33.47405818 78.85854972 30.62109375 77.28125 C21.85541034 72.72375996 13.13609283 69.98373921 3.24609375 69.78125 C2.04984375 69.74386719 0.85359375 69.70648438 -0.37890625 69.66796875 C-4.54773946 70.19389794 -6.01129828 70.90546824 -8.75390625 74.09375 C-11.48931216 82.14054223 -11.19434802 90.73481961 -11.37890625 99.15625 C-11.41716821 100.60874527 -11.45622444 102.06121984 -11.49609375 103.51367188 C-11.5911873 107.04017312 -11.67553739 110.56683279 -11.75390625 114.09375 C-17.40234375 114.375 -17.40234375 114.375 -20.56640625 111.84375 C-23.46307497 108.20222361 -23.87546598 105.45598974 -23.89434814 100.89468384 C-23.90005829 100.06485489 -23.90576843 99.23502594 -23.91165161 98.38005066 C-23.91276947 97.47813492 -23.91388733 96.57621918 -23.91503906 95.64697266 C-23.92000397 94.69042282 -23.92496887 93.73387299 -23.93008423 92.74833679 C-23.94468607 89.58482137 -23.95150413 86.42135608 -23.95703125 83.2578125 C-23.96278377 81.05829873 -23.96854149 78.85878498 -23.9743042 76.65927124 C-23.98480817 72.0475847 -23.99065498 67.43591557 -23.99414062 62.82421875 C-23.99962793 56.9171387 -24.0236637 51.01028884 -24.05211258 45.10328102 C-24.07074117 40.55993986 -24.07594466 36.01665417 -24.0774765 31.47327805 C-24.0805024 29.29559443 -24.0885288 27.11791177 -24.10166168 24.94026566 C-24.11872855 21.89310446 -24.11684035 18.84650609 -24.11035156 15.79931641 C-24.11956635 14.90144913 -24.12878113 14.00358185 -24.13827515 13.07850647 C-24.10450917 8.01302999 -23.60824499 4.46754394 -20.75390625 0.09375 C-15.00013775 -2.78313425 -6.10247449 -1.47323005 0 0 Z " fill="#008ECE" transform="translate(97.75390625,0.90625)"/>
<path d="M0 0 C9.61980472 8.72724552 14.39382417 23.13785603 15.17578125 35.85986328 C16.02097643 55.68270878 13.92824546 72.10904332 3 89 C1.35583361 90.68886721 -0.30798234 92.35907594 -2 94 C-2.19135671 53.01727965 -2.19135671 53.01727965 -1.35571289 38.11425781 C-0.8758166 29.0638073 -0.94696005 20.01836345 -1.03710938 10.95776367 C-1.04548828 9.82056885 -1.05386719 8.68337402 -1.0625 7.51171875 C-1.07990234 5.98744263 -1.07990234 5.98744263 -1.09765625 4.43237305 C-1 2 -1 2 0 0 Z " fill="#00A054" transform="translate(154,98)"/>
<path d="M0 0 C0.66 0.33 1.32 0.66 2 1 C2.09262957 12.53500691 2.16372932 24.06992551 2.20724869 35.60522842 C2.22813454 40.96139908 2.25647064 46.31731551 2.30175781 51.67333984 C2.34517961 56.84101616 2.36912959 62.00844777 2.37950897 67.17629242 C2.38690691 69.14911502 2.40135319 71.12192405 2.42292023 73.09464264 C2.45190543 75.85538303 2.45595805 78.6151088 2.45410156 81.37597656 C2.46848267 82.19381119 2.48286377 83.01164581 2.49768066 83.85426331 C2.4704548 87.58936785 2.34228917 89.57154373 -0.02838135 92.53900146 C-1.00433258 93.26219574 -1.00433258 93.26219574 -2 94 C-2.19135671 53.01727965 -2.19135671 53.01727965 -1.35571289 38.11425781 C-0.8758166 29.0638073 -0.94696005 20.01836345 -1.03710938 10.95776367 C-1.04548828 9.82056885 -1.05386719 8.68337402 -1.0625 7.51171875 C-1.07990234 5.98744263 -1.07990234 5.98744263 -1.09765625 4.43237305 C-1 2 -1 2 0 0 Z " fill="#14A453" transform="translate(154,98)"/>
</svg>
